Coordinates
version=1
nRows=54
nColumns=12
inDegrees=yes

Units are S.I. units (second, meters, Newtons, ...)
Angles are in degrees

endheader
time	SC_y	SC_z	SC_x	AC_y	AC_z	AC_x	GH_y	GH_z	GH_yy	EL_x	PS_y
       0.0              -19.73           38.1          5.049          68.62          7.393          3.813         -44.45           66.7          82.92          138.1          12.39
   0.04005              -19.73          38.09          5.052          68.61          7.392          3.815         -44.46          66.69          82.93          138.1           12.4
    0.0801              -19.73          38.08          5.056          68.61           7.39          3.817         -44.47          66.68          82.95          138.1          12.41
    0.1201              -19.74          38.08           5.06          68.61          7.388          3.819         -44.48          66.67          82.96          138.1          12.43
    0.1602              -19.74          38.07          5.063           68.6          7.386          3.822         -44.49          66.66          82.98          138.1          12.45
    0.2002              -19.74          38.06          5.068           68.6          7.384          3.824          -44.5          66.65          82.99          138.1          12.46
    0.2403              -19.74          38.05          5.072           68.6          7.381          3.827         -44.51          66.64          83.01          138.1          12.48
    0.2803              -19.74          38.05          5.077          68.59          7.379          3.829         -44.52          66.62          83.03          138.0           12.5
    0.3204              -19.75          38.04          5.082          68.59          7.376          3.832         -44.53          66.61          83.05          138.0          12.53
    0.3604              -19.75          38.03          5.088          68.58          7.373          3.836         -44.55          66.59          83.08          138.0          12.55
    0.4005              -19.75          38.01          5.094          68.58           7.37          3.839         -44.56          66.58           83.1          138.0          12.57
    0.4405              -19.76           38.0            5.1          68.57          7.366          3.843         -44.57          66.56          83.13          138.0           12.6
    0.4806              -19.76          37.99          5.107          68.56          7.363          3.847         -44.59          66.54          83.15          138.0          12.63
    0.5206              -19.76          37.98          5.114          68.56          7.359          3.851         -44.61          66.52          83.18          138.0          12.66
    0.5607              -19.77          37.96          5.122          68.55          7.354          3.856         -44.63           66.5          83.22          138.0          12.69
    0.6007              -19.77          37.95          5.131          68.54           7.35          3.861         -44.65          66.47          83.25          138.0          12.73
    0.6408              -19.78          37.93          5.141          68.53          7.345          3.866         -44.67          66.45          83.29          137.9          12.77
    0.6808              -19.78          37.91          5.151          68.52          7.339          3.872          -44.7          66.42          83.34          137.9          12.81
    0.7209              -19.79          37.89          5.162          68.51          7.333          3.879         -44.72          66.39          83.38          137.9          12.86
    0.7609               -19.8          37.86          5.175           68.5          7.326          3.886         -44.75          66.35          83.43          137.9          12.91
     0.801               -19.8          37.84          5.188          68.49          7.319          3.894         -44.78          66.32          83.49          137.9          12.97
     0.841              -19.81          37.81          5.203          68.47          7.311          3.903         -44.82          66.27          83.55          137.8          13.03
    0.8811              -19.82          37.78           5.22          68.46          7.302          3.912         -44.86          66.23          83.62          137.8           13.1
    0.9211              -19.83          37.75          5.238          68.44          7.293          3.923          -44.9          66.18          83.69          137.8          13.18
    0.9612              -19.84          37.71          5.258          68.42          7.282          3.935         -44.95          66.12          83.77          137.7          13.27
     1.001              -19.85          37.67          5.281           68.4           7.27          3.948         -45.01          66.06          83.87          137.7          13.36
     1.041              -19.87          37.62          5.307          68.38          7.256          3.963         -45.07          65.99          83.97          137.7          13.47
     1.081              -19.88          37.57          5.335          68.35          7.241          3.979         -45.13          65.91          84.09          137.6          13.59
     1.121               -19.9          37.51          5.367          68.32          7.223          3.998         -45.21          65.82          84.22          137.6          13.72
     1.161              -19.92          37.44          5.404          68.29          7.204          4.019          -45.3          65.72          84.37          137.5          13.88
     1.201              -19.94          37.36          5.446          68.25          7.181          4.043          -45.4          65.61          84.54          137.4          14.05
     1.242              -19.97          37.27          5.494          68.21          7.156          4.071         -45.51          65.47          84.74          137.4          14.26
     1.282               -20.0          37.17           5.55          68.16          7.126          4.103         -45.64          65.32          84.97          137.3          14.49
     1.322              -20.03          37.05          5.614           68.1          7.092          4.141          -45.8          65.14          85.23          137.2          14.76
     1.362              -20.07          36.91           5.69          68.03          7.051          4.185         -45.98          64.93          85.54          137.0          15.08
     1.402              -20.12          36.75          5.779          67.94          7.004          4.236         -46.19          64.69           85.9          136.9          15.45
     1.442              -20.17          36.55          5.884          67.85          6.948          4.297         -46.44           64.4          86.34          136.7          15.89
     1.482              -20.24          36.32          6.011          67.73           6.88          4.371         -46.74          64.05          86.86          136.5          16.43
     1.522              -20.32          36.03          6.164          67.59          6.798           4.46         -47.11          63.63          87.48          136.3          17.07
     1.562              -20.42          35.69          6.351          67.42          6.698          4.568         -47.55          63.11          88.25          136.0          17.86
     1.602              -20.55          35.26          6.583           67.2          6.575          4.702          -48.1          62.47           89.2          135.6          18.83
     1.642               -20.7          34.73          6.871          66.94          6.421           4.87         -48.79          61.68          90.38          135.1          20.04
     1.682              -20.89          34.05          7.234           66.6          6.227           5.08         -49.65          60.68          91.86          134.5          21.56
     1.722              -21.14           33.2          7.695          66.18           5.98          5.348         -50.75          59.41          93.75          133.7           23.5
     1.762              -21.46          32.11          8.286          65.63          5.665           5.69         -52.16          57.78          96.17          132.8          25.98
     1.802              -21.86           30.7          9.044          64.93           5.26           6.13         -53.96          55.69          99.27          131.5          29.17
     1.842              -22.38          28.91          10.01          64.04          4.743          6.691         -56.27          53.02          103.2          129.9          33.23
     1.882              -23.02          26.66          11.23          62.92          4.093          7.397         -59.17          49.66          108.2          127.9          38.35
     1.922              -23.82          23.91          12.71          61.55          3.301          8.258          -62.7          45.57          114.3          125.5          44.58
     1.962              -24.73          20.73          14.43          59.96          2.383          9.255         -66.79          40.83          121.3          122.7           51.8
     2.002              -25.73          17.28           16.3          58.24          1.388          10.33         -71.23           35.7          129.0          119.6          59.62
     2.043              -26.72          13.83          18.16          56.53          0.394          11.41         -75.66          30.57          136.6          116.5          67.44
     2.083              -27.63          10.65          19.88          54.94        -0.5243          12.41         -79.75          25.83          143.6          113.7          74.67
     2.123              -28.43            7.9          21.36          53.57         -1.317          13.27         -83.29          21.74          149.7          111.3           80.9
